<?xml version="1.0" encoding="UTF-8"?>
<svg version="1.1" xmlns="http://www.w3.org/2000/svg" xmlns:xlink="http://www.w3.org/1999/xlink">
  <symbol id="logo" class="h-5 w-5" viewBox="0 0 20 20" fill="currentColor">
    <polyline points="2,16 2,4 10,10 18,4 18,16" fill="none" stroke="#092333" stroke-width="1.2px" />
    <polyline points="16,16 16,8 8,16 16,16" fill="#003264" />
    <polyline points="4,16 4,8 10,12" fill="#00B849" />
  </symbol>

  <symbol id="power" fill="none" viewBox="0 0 24 24" stroke-width="1.5" stroke="currentColor" class="w-6 h-6">
    <path fill-rule="evenodd" d="M12 2.25a.75.75 0 01.75.75v9a.75.75 0 01-1.5 0V3a.75.75 0 01.75-.75zM6.166 5.106a.75.75 0 010 1.06 8.25 8.25 0 1011.668 0 .75.75 0 111.06-1.06c3.808 3.807 3.808 9.98 0 13.788-3.807 3.808-9.98 3.808-13.788 0-3.808-3.807-3.808-9.98 0-13.788a.75.75 0 011.06 0z" clip-rule="evenodd" />
  </symbol>

</svg>
